<?xml version="1.0" ?><svg height="53" viewBox="0 0 48 53" width="48" xmlns="http://www.w3.org/2000/svg"><path d="M403.424776,444.720775 C403.433369,445.753704 403.442736,446.854053 403.452925,448.033345 C403.496993,453.133734 403.525622,456.738082 403.542907,459.786242 C406.786368,459.856346 409.434466,460.20605 412.417287,460.876509 C413.125978,461.035804 413.850378,461.210905 414.796111,461.448682 C415.049617,461.512419 416.755417,461.945577 417.280245,462.076759 C421.463616,463.123 425.218526,466.587088 424.430038,470.530848 C423.879259,473.280255 420.813415,475.101068 415.72022,476.610583 C411.027706,478.001073 406.844493,478.486573 400.420701,478.409852 C395.714899,478.352676 393.007186,478.203871 389.861406,477.656102 C385.216306,476.847258 381.64801,475.316888 379.379887,472.725055 C376.851277,469.835394 376.69042,466.987993 378.950311,464.860423 C380.326278,463.565021 382.060559,462.822 385.646079,461.665556 C386.697322,461.326496 387.824385,461.903835 388.163444,462.955079 C388.502504,464.006322 387.925165,465.133385 386.873921,465.472444 C383.91091,466.42811 382.460483,467.049519 381.692189,467.772827 C381.149399,468.283837 381.172905,468.699936 382.390076,470.090902 C385.222567,473.32765 390.761872,474.2922 400.468885,474.410143 C406.516568,474.482371 410.308435,474.042291 414.583678,472.775447 C418.258442,471.686324 420.370358,470.432052 420.507813,469.745894 C420.763841,468.465327 418.690628,466.552687 416.310018,465.957307 C415.776496,465.823953 414.067027,465.389863 413.820784,465.327952 C412.904875,465.097674 412.210492,464.929828 411.540079,464.779137 C408.843761,464.173076 406.481169,463.856697 403.560116,463.78757 C403.563492,465.004344 403.565,466.197861 403.565,467.451 C403.565,468.555569 402.669569,469.451 401.565,469.451 C400.460431,469.451 399.565,468.555569 399.565,467.451 C399.565,466.193606 399.563476,464.996157 399.560061,463.774356 C397.827483,463.791566 396.552114,463.909453 394.699179,464.264304 C393.614324,464.472062 392.566454,463.761034 392.358696,462.676179 C392.150938,461.591324 392.861966,460.543454 393.946821,460.335696 C396.079021,459.927364 397.574524,459.79258 399.542771,459.774293 C399.525493,456.738021 399.496946,453.14555 399.453075,448.067905 C399.369229,438.363672 399.341,433.996142 399.341,428.555 C399.341,427.450431 400.236431,426.555 401.341,426.555 C402.445569,426.555 403.341,427.450431 403.341,428.555 C403.341,428.903633 403.341116,429.247864 403.341356,429.589392 C404.983164,430.71421 406.601309,431.511536 409.515693,432.742647 C409.508437,432.739582 410.60365,433.200989 410.921808,433.336103 C411.471061,433.569359 411.932818,433.769047 412.382226,433.968799 C412.541016,434.039471 413.070639,434.276982 413.153684,434.314049 C413.442847,434.443117 413.665337,434.540704 413.878031,434.631148 C414.765726,435.008623 415.449615,435.242122 416.139493,435.387084 C416.188642,435.391719 416.244901,435.397704 416.301813,435.405208 C416.663359,435.452878 416.955606,435.529756 417.312724,435.757213 C418.223503,436.337308 418.555504,437.497716 418.061035,438.482066 C417.218171,440.168645 414.996734,441.223369 410.95796,442.519363 C409.674753,442.931128 405.990267,443.994763 405.629062,444.115163 C405.45363,444.173395 404.13654,444.515968 403.782716,444.616236 C403.655591,444.652261 403.536154,444.687129 403.424776,444.720775 Z M403.391822,440.577657 C403.863747,440.451939 404.350907,440.324823 404.366544,440.319633 C404.822235,440.167737 408.535913,439.095675 409.73579,438.710649 C410.454811,438.479924 411.10497,438.256438 411.685334,438.038829 C411.633272,438.015723 411.579391,437.991735 411.52332,437.966708 C411.435157,437.927356 410.908215,437.691047 410.756674,437.623601 C410.330972,437.434387 409.888644,437.243101 409.358249,437.017853 C409.046355,436.885399 407.956611,436.426296 407.959168,436.427376 C406.035999,435.61498 404.608328,434.96384 403.353158,434.281486 C403.361261,436.152365 403.373787,438.166442 403.391822,440.577657 Z" fill="#34358d" transform="translate(-377 -426)"/></svg>